<svg xmlns="http://www.w3.org/2000/svg" viewBox="0 0 64 64" width="64" height="64" role="img" aria-label="Partly cloudy skies">
  <circle cx="24" cy="24" r="12" fill="#D98E2B"/>
  <g fill="none" stroke="#D98E2B" stroke-width="2.5" stroke-linecap="round">
    <line x1="24" y1="4" x2="24" y2="8"/>
    <line x1="24" y1="40" x2="24" y2="44"/>
    <line x1="4" y1="24" x2="8" y2="24"/>
    <line x1="8.5" y1="8.5" x2="11.3" y2="11.3"/>
    <line x1="36.7" y1="8.5" x2="33.9" y2="11.3"/>
  </g>
  <path d="M20 46c-6.6 0-12-5.2-12-11.6 0-5.7 4.3-10.5 9.9-11.4C19.8 17.9 25 14 31 14c7.5 0 13.6 6 13.9 13.4 5.1 1 8.9 5.4 8.9 10.7 0 6-5 10.9-11.1 10.9H20z" fill="#FBF6EC" stroke="#2C8C87" stroke-width="2"/>
</svg>
